Coordinates
version=1
nRows=19
nColumns=34
inDegrees=yes

Units are S.I. units (second, meters, Newtons, ...)
If the header above contains a line with 'inDegrees', this indicates whether rotational values are in degrees (yes) or radians (no).

endheader
time	pelvis_tilt	pelvis_list	pelvis_rotation	pelvis_tx	pelvis_ty	pelvis_tz	hip_flexion_r	hip_adduction_r	hip_rotation_r	knee_angle_r	ankle_angle_r	subtalar_angle_r	mtp_angle_r	hip_flexion_l	hip_adduction_l	hip_rotation_l	knee_angle_l	ankle_angle_l	subtalar_angle_l	mtp_angle_l	lumbar_extension	lumbar_bending	lumbar_rotation	arm_flex_r	arm_add_r	arm_rot_r	elbow_flex_r	pro_sup_r	arm_flex_l	arm_add_l	arm_rot_l	elbow_flex_l	pro_sup_l
      0.00000000	      7.71089778	      6.74899775	    -11.53627579	      0.16657695	      0.86837934	      0.01293698	     -2.91312329	      1.12749093	     -3.88671486	      8.57979096	     -0.00919315	     -4.79278781	      0.00000000	     27.93751561	     -1.86323141	     -7.94771222	     13.47900059	    -18.09124801	     -1.62993676	      0.00000000	    -13.13117891	     -1.83419646	      8.87564905	     45.90605156	      4.50851633	     54.02268798	    102.06779628	    111.67631024	     51.97743927	      7.26496189	     67.57574557	    108.99809629	     87.63925401
      0.01666670	      8.39097231	      7.14387720	    -10.11306336	      0.16844817	      0.86828010	      0.01175832	     -3.06534633	      0.62780148	     -7.04768076	      7.97587102	     -2.96959667	     -7.34294948	      0.00000000	     25.29725983	     -0.32640825	    -10.22705363	     11.28083714	    -17.11470623	      1.24849958	      0.00000000	    -12.88902650	     -2.60544400	      7.20725421	     47.13481348	      3.35082570	     53.59038062	    103.79145763	    110.24242874	     54.91028349	      6.89996472	     66.16279096	    108.90894826	     88.51565905
      0.03333330	      7.09102025	      6.77146542	     -8.71040331	      0.16975210	      0.87051064	      0.00989115	     -1.60096321	      1.67672537	     -8.48967885	      7.27434896	      1.05767786	     -5.59477637	      0.00000000	     25.27371662	     -0.13751933	     -9.53327010	     10.22938773	    -18.69924106	      1.53055376	      0.00000000	    -11.17677163	     -1.74426958	      5.95380675	     45.75342710	      2.12965789	     55.22533522	    105.95661128	    107.94151645	     55.12728936	      6.23332745	     66.84045688	    109.50568988	     89.42828461
      0.05000000	      7.15651888	      6.65244515	     -7.84839983	      0.17288880	      0.86905346	      0.01097210	     -1.86989305	      2.11026634	     -8.82698258	      6.20715147	      3.74178741	     -2.65550470	      0.00000000	     24.17153667	      0.07637708	     -8.52194654	     10.21481161	    -19.00604343	      1.77287429	      0.00000000	    -10.96630017	     -1.24432653	      5.58337790	     45.44623360	      1.84886201	     56.65951622	    105.74406225	    105.28096688	     55.45799867	      6.26020446	     67.56224548	    109.84109312	     89.10880078
      0.06666670	      6.48554262	      6.76124490	     -6.70030664	      0.17439017	      0.87080693	      0.00960254	     -1.98459337	      1.88220929	     -8.98206171	      5.69853874	      4.88555452	     -0.79191540	      0.00000000	     24.27250329	      0.62235139	     -7.06811101	     11.70198657	    -19.24479304	      0.10071361	      0.00000000	     -9.72916419	     -0.76283463	      5.35382534	     43.98608766	      0.98089385	     57.40467965	    105.62087727	    102.54386405	     54.81009930	      6.68160023	     68.54836768	    109.21499709	     87.58878879
      0.08333330	      5.95923532	      6.97167899	     -6.30205628	      0.17210412	      0.87083444	      0.00941219	     -2.02984840	      1.42245073	     -8.59297455	      5.60703017	      4.49189192	     -0.35131248	      0.00000000	     23.90538394	      0.88649966	     -6.25377133	     12.93379445	    -18.52497835	      0.02072961	      0.00000000	     -8.66638603	     -0.44364683	      5.26577120	     43.47837929	      0.78314299	     58.24193299	    105.53928160	    102.04363908	     54.51850907	      7.09200132	     69.42474343	    108.75242524	     87.17802264
      0.10000000	      5.83629824	      6.60714595	     -5.92606639	      0.17338151	      0.86829725	      0.00785834	     -1.42359958	      1.65157034	     -8.81863557	      4.91760509	      2.29994614	     -1.08934919	      0.00000000	     23.10902800	      0.70181845	     -5.32055469	     13.69060456	    -19.03240009	     -1.12720134	      0.00000000	     -8.37879335	      0.43914441	      4.74632235	     43.93160777	      0.96877654	     58.96034192	    105.06902727	    100.34478655	     54.46979893	      7.32814854	     69.34055735	    108.22721351	     85.50579558
      0.11666670	      5.65367396	      6.37848813	     -5.84656472	      0.17503313	      0.86248930	      0.00753819	     -1.70902146	      1.77823193	     -9.45877252	      4.22605473	      1.33978838	     -0.37716173	      0.00000000	     22.04345891	      0.60245108	     -4.26903443	     14.28948942	    -18.72434510	     -1.87076173	      0.00000000	     -7.65627993	      1.33202903	      3.69763917	     44.97019221	      1.61876526	     59.53169594	    103.09127387	     96.67071095	     54.69440096	      6.87631599	     69.11344157	    108.99224810	     81.84238696
      0.13333330	      5.15791439	      6.30209665	     -6.02840127	      0.17123852	      0.86489084	      0.00806848	     -1.53272871	      1.75047132	     -9.42903745	      4.01811114	      1.04361616	     -0.28946351	      0.00000000	     21.53689203	      0.38944812	     -3.96764555	     15.43312433	    -17.43709244	     -2.44099889	      0.00000000	     -7.11820067	      1.63789244	      3.21870914	     45.33882000	      1.76033651	     59.30630560	    103.08266137	     96.52056217	     55.70643317	      6.64917949	     69.26051428	    108.56620120	     81.69906561
      0.15000000	      4.48744514	      6.00563469	     -5.92456614	      0.17011807	      0.86237171	      0.00669352	     -1.20529484	      1.93121179	     -9.90423351	      3.96158556	      0.51132762	     -1.01644276	      0.00000000	     21.00708089	      0.14900267	     -2.70005157	     16.57578565	    -15.71764679	     -2.79016444	      0.00000000	     -6.45044428	      2.29692109	      2.20728007	     45.92294568	      1.92528848	     59.44153089	    102.98231388	     95.98188443	     56.84284652	      6.44781359	     69.87061060	    108.13549232	     81.04448856
      0.16666670	      3.89715636	      5.77171023	     -6.13156686	      0.16806860	      0.86057924	      0.00655447	     -0.95977089	      2.13815853	    -10.09737572	      3.86210563	      0.00803218	     -1.46792420	      0.00000000	     20.31726813	     -0.10194864	     -1.96058911	     17.42510120	    -14.00463635	     -3.09545169	      0.00000000	     -5.78387982	      2.98932644	      1.45417065	     46.36821292	      2.09441676	     59.97715020	    103.73001545	     95.51326710	     57.43201215	      5.99928339	     69.82364215	    108.33294819	     80.36461353
      0.18333330	      3.41595278	      5.62326558	     -6.32034900	      0.16843684	      0.85952576	      0.00413851	     -0.55211548	      2.19424918	    -10.25725466	      3.69230714	     -0.23528457	     -1.95434449	      0.00000000	     19.61871141	     -0.18596390	     -1.35494790	     18.54395066	    -11.97028031	     -3.81015047	      0.00000000	     -5.15792787	      3.64041256	      0.57818312	     46.60758679	      2.12603513	     60.71478165	    104.63736636	     95.23926101	     57.78929594	      5.69293675	     69.80379316	    108.45960594	     79.88838550
      0.20000000	      3.22124521	      5.55131619	     -6.89221302	      0.16928537	      0.85850439	      0.00387038	     -0.12752929	      2.24770285	    -10.53363179	      3.30347931	     -0.48644173	     -2.23548514	      0.00000000	     18.50627221	     -0.18300988	     -0.97550508	     18.96120196	    -10.76337725	     -4.27421186	      0.00000000	     -4.74542239	      4.21396075	      0.25585133	     46.83110813	      2.17665734	     60.85126745	    104.37942214	     95.09030214	     57.95634817	      5.50629214	     69.87262885	    108.44738185	     79.65016895
      0.21666670	      2.83023055	      5.49803643	     -6.98523927	      0.16822875	      0.86138936	      0.00272164	      0.11818335	      2.26390215	    -10.46289776	      2.83375675	     -0.25540634	     -2.00997247	      0.00000000	     17.70904179	     -0.03786072	     -0.47867149	     19.61701175	    -10.27882845	     -5.05332207	      0.00000000	     -4.02300051	      5.04236627	     -1.20208252	     47.44444865	      2.91876674	     62.11333531	    102.53796408	     93.06898929	     57.27287846	      4.42769014	     69.43858215	    109.35664359	     76.61731671
      0.23333330	      2.58448257	      5.45441587	     -7.12543526	      0.16401520	      0.85560851	      0.00455995	      0.46572446	      2.42943912	    -10.44542011	      2.64812314	      0.58879121	     -2.29004868	      0.00000000	     16.83232343	     -0.02465612	     -0.35252426	     20.54862912	     -9.01097205	     -5.73127511	      0.00000000	     -3.76922571	      5.32628229	     -1.58390859	     47.52876877	      2.90809479	     61.81891458	    102.32325109	     92.93135011	     57.75310891	      4.01397498	     69.47800907	    108.87874160	     76.44329566
      0.25000000	      2.37921857	      5.41158049	     -7.00019706	      0.16390111	      0.85533133	      0.00319710	      0.65241764	      2.53485347	    -10.13662140	      2.56036585	      1.95054043	     -2.37577857	      0.00000000	     16.19889258	      0.06581231	     -0.06640108	     21.70736871	     -8.08433446	     -6.59166711	      0.00000000	     -3.53494203	      5.70895740	     -2.05631048	     47.77295196	      3.09544822	     61.30220449	    101.60112231	     92.72007211	     58.13177623	      3.90757324	     69.61125841	    108.48090706	     76.19277042
      0.26666670	      2.20218591	      5.63414140	     -6.92734031	      0.16523366	      0.85206167	      0.00133877	      0.68245715	      2.25279088	     -9.97026211	      2.77734220	      3.63914348	     -2.53488111	      0.00000000	     15.64510055	      0.40420023	     -0.33905770	     22.99849708	     -7.22264337	     -7.87281778	      0.00000000	     -3.19337326	      5.72801827	     -2.70697329	     47.94760859	      3.46156984	     60.97092727	    101.17974403	     92.52358827	     58.65763812	      3.63860579	     69.59642329	    108.23701195	     75.94646768
      0.28333330	      2.11692944	      5.93210972	     -6.95554196	      0.16451836	      0.85336998	      0.00011908	      0.68653470	      1.84037362	     -9.89238004	      3.12073100	      5.33844763	     -2.61388475	      0.00000000	     15.15636450	      0.72667806	     -0.83253427	     23.87646323	     -7.61922322	     -9.26312163	      0.00000000	     -3.01027155	      5.72939822	     -3.22363724	     48.10808583	      3.82656760	     60.73111265	    100.62184227	     92.29690293	     58.86415524	      3.40013993	     69.62131948	    108.19093548	     75.65439038
      0.30000000	      2.10364856	      6.29842459	     -7.02685392	      0.16395866	      0.85127405	     -0.00341425	      0.43294179	      1.17393224	     -9.80835339	      3.32594595	      6.97294615	     -1.76527464	      0.00000000	     14.56703092	      1.27909757	     -0.95778343	     24.50371327	     -9.17716370	    -11.75386267	      0.00000000	     -2.57575334	      5.90013348	     -3.83694598	     48.37716260	      4.29125952	     61.23298720	    100.67093259	     91.80217493	     58.38299523	      3.19749417	     68.95361598	    108.33542962	     74.87223535
